<svg width="20" height="20" viewBox="0 0 20 20" fill="none" xmlns="http://www.w3.org/2000/svg">
<path d="M19.5145 18.4587L14.8214 13.7656C16.1843 12.131 16.8646 10.0338 16.7206 7.91044C16.5767 5.78706 15.6197 3.8009 14.0486 2.36517C12.4776 0.929445 10.4135 0.154682 8.28578 0.202064C6.15804 0.249446 4.13049 1.11532 2.62492 2.61957C1.11935 4.12381 0.251676 6.15059 0.202413 8.27829C0.153151 10.406 0.926089 12.4707 2.36043 14.0431C3.79477 15.6154 5.78008 16.5742 7.90334 16.72C10.0266 16.8658 12.1243 16.1874 13.7601 14.8259L18.4533 19.5199C18.5229 19.5896 18.6057 19.6449 18.6967 19.6826C18.7878 19.7203 18.8853 19.7397 18.9839 19.7397C19.0824 19.7397 19.18 19.7203 19.2711 19.6826C19.3621 19.6449 19.4448 19.5896 19.5145 19.5199C19.5842 19.4503 19.6395 19.3675 19.6772 19.2765C19.7149 19.1854 19.7343 19.0879 19.7343 18.9893C19.7343 18.8908 19.7149 18.7932 19.6772 18.7021C19.6395 18.6111 19.5842 18.5284 19.5145 18.4587ZM1.73388 8.48932C1.73388 7.15429 2.12977 5.84925 2.87146 4.73922C3.61316 3.62919 4.66737 2.76402 5.90077 2.25313C7.13417 1.74224 8.49137 1.60857 9.80074 1.86902C11.1101 2.12947 12.3129 2.77234 13.2569 3.71635C14.2009 4.66035 14.8437 5.86309 15.1042 7.17246C15.3646 8.48183 15.231 9.83903 14.7201 11.0724C14.2092 12.3058 13.344 13.36 12.234 14.1017C11.124 14.8434 9.81891 15.2393 8.48388 15.2393C6.69428 15.2373 4.97855 14.5255 3.71311 13.2601C2.44767 11.9947 1.73587 10.2789 1.73388 8.48932Z" fill="#333333"/>
</svg>
